<svg width="1920" height="2438" viewBox="0 0 1920 2438" fill="none" xmlns="http://www.w3.org/2000/svg">
<g clip-path="url(#clip0_588483_228)">
<rect width="1920" height="1205" fill="#F6EBE0"/>
<g filter="url(#filter0_f_588483_228)">
<path d="M322.5 -17.5C591.5 60.5 1317.1 394.7 1475.5 869.5C1673.5 1463 -199.5 1245 303 1879.5C705 2387.1 1458.83 2399 1785.5 2341.5" stroke="#86E0D1" stroke-width="10" stroke-linecap="round"/>
</g>
<g filter="url(#filter1_f_588483_228)">
<path d="M463 -39.5C732 38.5 1317.1 394.7 1475.5 869.5C1673.5 1463 -199.5 1245 303 1879.5C705 2387.1 1458.83 2399 1785.5 2341.5" stroke="#86E0D1" stroke-width="10" stroke-linecap="round"/>
</g>
<g filter="url(#filter2_f_588483_228)">
<path d="M-105.5 83C163.5 161 1317.1 394.7 1475.5 869.5C1673.5 1463 -199.5 1245 303 1879.5C705 2387.1 1458.83 2399 1785.5 2341.5" stroke="#86E0D1" stroke-width="10" stroke-linecap="round"/>
</g>
<g filter="url(#filter3_f_588483_228)">
<path d="M537.5 -82.5C806.5 -4.5 1317.1 394.7 1475.5 869.5C1673.5 1463 -199.5 1245 303 1879.5C705 2387.1 1458.83 2399 1785.5 2341.5" stroke="#86E0D1" stroke-width="10" stroke-linecap="round"/>
</g>
<g filter="url(#filter4_f_588483_228)">
<path d="M1513.5 182L1710 523H1317L1513.5 182Z" fill="#F6AF67"/>
</g>
<g filter="url(#filter5_f_588483_228)">
<path d="M1445.5 182L1642 523H1249L1445.5 182Z" fill="#F6AF67"/>
</g>
<g filter="url(#filter6_f_588483_228)">
<path d="M1407.5 208L1604 549H1211L1407.5 208Z" fill="#F6AF67"/>
</g>
<g filter="url(#filter7_f_588483_228)">
<path d="M419 104L792 749H46L419 104Z" fill="#FFDCB0"/>
</g>
<g filter="url(#filter8_f_588483_228)">
<path d="M419 133L792 778H46L419 133Z" fill="#FFDCB0"/>
</g>
<g filter="url(#filter9_f_588483_228)">
<path d="M419 204L792 848H46L419 204Z" fill="#FFDCB0"/>
</g>
<g filter="url(#filter10_f_588483_228)">
<path d="M1052.5 583L1339 1088H766L1052.5 583Z" fill="#FDD299"/>
</g>
<g filter="url(#filter11_f_588483_228)">
<path d="M1052.5 583L1339 1088H766L1052.5 583Z" fill="#FDD299"/>
</g>
<g filter="url(#filter12_f_588483_228)">
<path d="M1052.5 583L1339 1088H766L1052.5 583Z" fill="#FDD299"/>
</g>
</g>
<g clip-path="url(#clip1_588483_228)">
<rect width="1920" height="1233" transform="translate(0 1205)" fill="white"/>
<rect y="1205" width="1920" height="1233" fill="#F6EBE0"/>
<g filter="url(#filter13_f_588483_228)">
<path d="M470.5 42C739.5 120 1317.1 394.7 1475.5 869.5C1673.5 1463 -199.5 1245 303 1879.5C705 2387.1 1458.83 2399 1785.5 2341.5" stroke="#86E0D1" stroke-width="10" stroke-linecap="round"/>
</g>
<g filter="url(#filter14_f_588483_228)">
<path d="M470.5 42C739.5 120 1317.1 394.7 1475.5 869.5C1673.5 1463 -199.5 1245 303 1879.5C705 2387.1 1458.83 2399 1785.5 2341.5" stroke="#86E0D1" stroke-width="10" stroke-linecap="round"/>
</g>
<g filter="url(#filter15_f_588483_228)">
<path d="M470.5 42C739.5 120 1317.1 394.7 1475.5 869.5C1673.5 1463 -199.5 1245 303 1879.5C705 2387.1 1458.83 2399 1785.5 2341.5" stroke="#86E0D1" stroke-width="10" stroke-linecap="round"/>
</g>
<g filter="url(#filter16_f_588483_228)">
<path d="M470.5 42C739.5 120 1317.1 394.7 1475.5 869.5C1673.5 1463 -199.5 1245 303 1879.5C705 2387.1 1458.83 2399 1785.5 2341.5" stroke="#86E0D1" stroke-width="10" stroke-linecap="round"/>
</g>
<rect x="1289" y="1920" width="2" height="1" fill="#343434"/>
</g>
<defs>
<filter id="filter0_f_588483_228" x="162.033" y="-72.5012" width="1678.47" height="2492.52" filterUnits="userSpaceOnUse" color-interpolation-filters="sRGB">
<feFlood flood-opacity="0" result="BackgroundImageFix"/>
<feBlend mode="normal" in="SourceGraphic" in2="BackgroundImageFix" result="shape"/>
<feGaussianBlur stdDeviation="25" result="effect1_foregroundBlur_588483_228"/>
</filter>
<filter id="filter1_f_588483_228" x="187.033" y="-69.5012" width="1628.47" height="2464.52" filterUnits="userSpaceOnUse" color-interpolation-filters="sRGB">
<feFlood flood-opacity="0" result="BackgroundImageFix"/>
<feBlend mode="normal" in="SourceGraphic" in2="BackgroundImageFix" result="shape"/>
<feGaussianBlur stdDeviation="12.5" result="effect1_foregroundBlur_588483_228"/>
</filter>
<filter id="filter2_f_588483_228" x="-125.501" y="62.9988" width="1931" height="2322.02" filterUnits="userSpaceOnUse" color-interpolation-filters="sRGB">
<feFlood flood-opacity="0" result="BackgroundImageFix"/>
<feBlend mode="normal" in="SourceGraphic" in2="BackgroundImageFix" result="shape"/>
<feGaussianBlur stdDeviation="7.5" result="effect1_foregroundBlur_588483_228"/>
</filter>
<filter id="filter3_f_588483_228" x="202.033" y="-97.5012" width="1598.47" height="2477.52" filterUnits="userSpaceOnUse" color-interpolation-filters="sRGB">
<feFlood flood-opacity="0" result="BackgroundImageFix"/>
<feBlend mode="normal" in="SourceGraphic" in2="BackgroundImageFix" result="shape"/>
<feGaussianBlur stdDeviation="5" result="effect1_foregroundBlur_588483_228"/>
</filter>
<filter id="filter4_f_588483_228" x="1242" y="107" width="543" height="491" filterUnits="userSpaceOnUse" color-interpolation-filters="sRGB">
<feFlood flood-opacity="0" result="BackgroundImageFix"/>
<feBlend mode="normal" in="SourceGraphic" in2="BackgroundImageFix" result="shape"/>
<feGaussianBlur stdDeviation="37.5" result="effect1_foregroundBlur_588483_228"/>
</filter>
<filter id="filter5_f_588483_228" x="1224" y="157" width="443" height="391" filterUnits="userSpaceOnUse" color-interpolation-filters="sRGB">
<feFlood flood-opacity="0" result="BackgroundImageFix"/>
<feBlend mode="normal" in="SourceGraphic" in2="BackgroundImageFix" result="shape"/>
<feGaussianBlur stdDeviation="12.5" result="effect1_foregroundBlur_588483_228"/>
</filter>
<filter id="filter6_f_588483_228" x="1196" y="193" width="423" height="371" filterUnits="userSpaceOnUse" color-interpolation-filters="sRGB">
<feFlood flood-opacity="0" result="BackgroundImageFix"/>
<feBlend mode="normal" in="SourceGraphic" in2="BackgroundImageFix" result="shape"/>
<feGaussianBlur stdDeviation="7.5" result="effect1_foregroundBlur_588483_228"/>
</filter>
<filter id="filter7_f_588483_228" x="-29" y="29" width="896" height="795" filterUnits="userSpaceOnUse" color-interpolation-filters="sRGB">
<feFlood flood-opacity="0" result="BackgroundImageFix"/>
<feBlend mode="normal" in="SourceGraphic" in2="BackgroundImageFix" result="shape"/>
<feGaussianBlur stdDeviation="37.5" result="effect1_foregroundBlur_588483_228"/>
</filter>
<filter id="filter8_f_588483_228" x="21" y="108" width="796" height="695" filterUnits="userSpaceOnUse" color-interpolation-filters="sRGB">
<feFlood flood-opacity="0" result="BackgroundImageFix"/>
<feBlend mode="normal" in="SourceGraphic" in2="BackgroundImageFix" result="shape"/>
<feGaussianBlur stdDeviation="12.5" result="effect1_foregroundBlur_588483_228"/>
</filter>
<filter id="filter9_f_588483_228" x="31" y="189" width="776" height="674" filterUnits="userSpaceOnUse" color-interpolation-filters="sRGB">
<feFlood flood-opacity="0" result="BackgroundImageFix"/>
<feBlend mode="normal" in="SourceGraphic" in2="BackgroundImageFix" result="shape"/>
<feGaussianBlur stdDeviation="7.5" result="effect1_foregroundBlur_588483_228"/>
</filter>
<filter id="filter10_f_588483_228" x="691" y="508" width="723" height="655" filterUnits="userSpaceOnUse" color-interpolation-filters="sRGB">
<feFlood flood-opacity="0" result="BackgroundImageFix"/>
<feBlend mode="normal" in="SourceGraphic" in2="BackgroundImageFix" result="shape"/>
<feGaussianBlur stdDeviation="37.5" result="effect1_foregroundBlur_588483_228"/>
</filter>
<filter id="filter11_f_588483_228" x="741" y="558" width="623" height="555" filterUnits="userSpaceOnUse" color-interpolation-filters="sRGB">
<feFlood flood-opacity="0" result="BackgroundImageFix"/>
<feBlend mode="normal" in="SourceGraphic" in2="BackgroundImageFix" result="shape"/>
<feGaussianBlur stdDeviation="12.5" result="effect1_foregroundBlur_588483_228"/>
</filter>
<filter id="filter12_f_588483_228" x="751" y="568" width="603" height="535" filterUnits="userSpaceOnUse" color-interpolation-filters="sRGB">
<feFlood flood-opacity="0" result="BackgroundImageFix"/>
<feBlend mode="normal" in="SourceGraphic" in2="BackgroundImageFix" result="shape"/>
<feGaussianBlur stdDeviation="7.5" result="effect1_foregroundBlur_588483_228"/>
</filter>
<filter id="filter13_f_588483_228" x="162.033" y="-13.0012" width="1678.47" height="2433.02" filterUnits="userSpaceOnUse" color-interpolation-filters="sRGB">
<feFlood flood-opacity="0" result="BackgroundImageFix"/>
<feBlend mode="normal" in="SourceGraphic" in2="BackgroundImageFix" result="shape"/>
<feGaussianBlur stdDeviation="25" result="effect1_foregroundBlur_588483_228"/>
</filter>
<filter id="filter14_f_588483_228" x="187.033" y="11.9988" width="1628.47" height="2383.02" filterUnits="userSpaceOnUse" color-interpolation-filters="sRGB">
<feFlood flood-opacity="0" result="BackgroundImageFix"/>
<feBlend mode="normal" in="SourceGraphic" in2="BackgroundImageFix" result="shape"/>
<feGaussianBlur stdDeviation="12.5" result="effect1_foregroundBlur_588483_228"/>
</filter>
<filter id="filter15_f_588483_228" x="197.033" y="21.9988" width="1608.47" height="2363.02" filterUnits="userSpaceOnUse" color-interpolation-filters="sRGB">
<feFlood flood-opacity="0" result="BackgroundImageFix"/>
<feBlend mode="normal" in="SourceGraphic" in2="BackgroundImageFix" result="shape"/>
<feGaussianBlur stdDeviation="7.5" result="effect1_foregroundBlur_588483_228"/>
</filter>
<filter id="filter16_f_588483_228" x="202.033" y="26.9988" width="1598.47" height="2353.02" filterUnits="userSpaceOnUse" color-interpolation-filters="sRGB">
<feFlood flood-opacity="0" result="BackgroundImageFix"/>
<feBlend mode="normal" in="SourceGraphic" in2="BackgroundImageFix" result="shape"/>
<feGaussianBlur stdDeviation="5" result="effect1_foregroundBlur_588483_228"/>
</filter>
<clipPath id="clip0_588483_228">
<rect width="1920" height="1205" fill="white"/>
</clipPath>
<clipPath id="clip1_588483_228">
<rect width="1920" height="1233" fill="white" transform="translate(0 1205)"/>
</clipPath>
</defs>
</svg>
