<svg width="274" height="50" viewBox="0 0 274 50" fill="none" xmlns="http://www.w3.org/2000/svg">
<path d="M16.25 -3.33786e-06H31.65V49.07H25.14L9.04 17.15V40.81H15.55V48.93H0.85V-3.33786e-06H9.53L23.46 27.72V8.19H16.25V-3.33786e-06ZM56.3463 3.29C60.1263 1.09666 64.2097 -3.33786e-06 68.5963 -3.33786e-06C73.0297 -3.33786e-06 77.1363 1.09666 80.9163 3.29C84.6963 5.48333 87.6597 8.47 89.8063 12.25C91.9997 15.9833 93.0963 20.0667 93.0963 24.5C93.0963 28.8867 91.9997 32.97 89.8063 36.75C87.6597 40.53 84.6963 43.5167 80.9163 45.71C77.1363 47.8567 73.0297 48.93 68.5963 48.93C64.2097 48.93 60.1263 47.8567 56.3463 45.71C52.613 43.5167 49.6497 40.53 47.4563 36.75C45.263 32.97 44.1663 28.8867 44.1663 24.5C44.1663 20.0667 45.263 15.9833 47.4563 12.25C49.6497 8.47 52.613 5.48333 56.3463 3.29ZM57.1163 36.05C60.2897 39.2233 64.1163 40.81 68.5963 40.81C73.123 40.81 76.973 39.2233 80.1463 36.05C83.3663 32.83 84.9763 28.98 84.9763 24.5C84.9763 19.9733 83.3663 16.1233 80.1463 12.95C76.973 9.77667 73.123 8.19 68.5963 8.19C64.1163 8.19 60.2897 9.77667 57.1163 12.95C53.943 16.1233 52.3563 19.9733 52.3563 24.5C52.3563 28.98 53.943 32.83 57.1163 36.05ZM73.2163 29.19C71.9563 30.45 70.4163 31.08 68.5963 31.08C66.823 31.08 65.283 30.45 63.9763 29.19C62.7163 27.8833 62.0863 26.3433 62.0863 24.57C62.0863 22.75 62.7163 21.21 63.9763 19.95C65.283 18.6433 66.823 17.99 68.5963 17.99C70.4163 17.99 71.9563 18.6433 73.2163 19.95C74.523 21.21 75.1763 22.75 75.1763 24.57C75.1763 26.3433 74.523 27.8833 73.2163 29.19ZM124.67 12.18H138.53V20.37H124.67V49.07H116.48V20.37H102.41V12.18H116.48V-3.33786e-06H124.67V12.18ZM165.355 -3.33786e-06H180.755V49.07H174.245L158.145 17.15V40.81H164.655V48.93H149.955V-3.33786e-06H158.635L172.565 27.72V8.19H165.355V-3.33786e-06ZM227.642 8.19H203.632V20.44H227.642V28.63H203.632V49.07H195.442V-3.33786e-06H227.642V8.19ZM259.215 12.18H273.075V20.37H259.215V49.07H251.025V20.37H236.955V12.18H251.025V-3.33786e-06H259.215V12.18Z" fill="#FF664E"/>
</svg>
